<?xml version="1.0" encoding="UTF-8"?>
<svg id="Layer_2" xmlns="http://www.w3.org/2000/svg" viewBox="0 0 574 573.94">
  <defs>
    <style>
      .cls-1 {
        fill: #231f20;
      }

      .cls-2 {
        fill: #ffcc04;
      }
    </style>
  </defs>
  <g id="Layer_1-2" data-name="Layer_1">
    <path class="cls-1" d="M287,573.94c-2.02,0-4.03-.02-6.03-.06l.29-14c3.91.08,7.84.08,11.75,0l.3,14c-2.1.04-4.2.07-6.31.07ZM268.64,573.37c-4.1-.26-8.24-.61-12.3-1.04l1.48-13.92c3.86.41,7.8.74,11.7.99l-.88,13.97ZM305.65,573.35l-.9-13.97c3.9-.25,7.84-.59,11.7-1l1.49,13.92c-4.06.44-8.2.79-12.3,1.05ZM244.09,570.76c-4.05-.61-8.15-1.31-12.17-2.09l2.67-13.74c3.82.74,7.72,1.41,11.57,1.99l-2.08,13.85ZM330.19,570.71l-2.09-13.84c3.85-.58,7.75-1.26,11.57-2l2.69,13.74c-4.02.79-8.11,1.49-12.17,2.11ZM219.85,566.04c-3.98-.95-8-2.01-11.94-3.14l3.85-13.46c3.75,1.07,7.57,2.08,11.36,2.98l-3.26,13.62ZM354.42,565.98l-3.27-13.61c3.77-.91,7.59-1.92,11.35-2.99l3.87,13.46c-3.95,1.14-7.97,2.2-11.94,3.15ZM196.11,559.25c-3.9-1.3-7.82-2.7-11.66-4.17l5-13.08c3.65,1.4,7.38,2.73,11.09,3.97l-4.43,13.28ZM378.16,559.16l-4.44-13.28c3.7-1.24,7.42-2.57,11.05-3.97l5.02,13.07c-3.82,1.47-7.74,2.87-11.62,4.17ZM172.99,550.41c-3.77-1.63-7.55-3.37-11.24-5.16l6.12-12.59c3.51,1.71,7.11,3.36,10.69,4.91l-5.57,12.85ZM401.18,550.33l-5.57-12.84c3.57-1.55,7.15-3.2,10.64-4.9l6.12,12.59c-3.67,1.79-7.44,3.52-11.19,5.15ZM150.75,539.6c-3.61-1.95-7.23-4.01-10.75-6.11l7.18-12.02c3.35,2,6.79,3.96,10.22,5.81l-6.66,12.32ZM423.34,539.55l-6.66-12.31c3.42-1.85,6.85-3.8,10.19-5.8l7.18,12.02c-3.51,2.1-7.12,4.15-10.72,6.1ZM129.52,526.92c-3.42-2.25-6.85-4.61-10.18-7.01l8.19-11.36c3.17,2.28,6.42,4.53,9.68,6.67l-7.69,11.7ZM444.5,526.9l-7.69-11.7c3.26-2.14,6.51-4.38,9.66-6.66l8.19,11.36c-3.32,2.39-6.74,4.75-10.16,7ZM464.51,512.48l-8.67-10.99c3.06-2.41,6.11-4.92,9.06-7.46l9.13,10.62c-3.1,2.67-6.31,5.31-9.53,7.84ZM109.48,512.47c-3.22-2.53-6.42-5.18-9.53-7.85l9.13-10.62c2.96,2.54,6.01,5.06,9.07,7.47l-8.67,10.99ZM483.22,496.39l-9.57-10.22c2.84-2.66,5.67-5.42,8.4-8.21l10,9.8c-2.87,2.93-5.84,5.83-8.83,8.63ZM90.76,496.37c-2.99-2.81-5.96-5.71-8.82-8.63l10-9.8c2.72,2.78,5.55,5.55,8.4,8.22l-9.58,10.21ZM500.49,478.75l-10.41-9.36c2.61-2.9,5.19-5.9,7.67-8.91l10.8,8.91c-2.61,3.16-5.32,6.31-8.06,9.36ZM73.49,478.73c-2.73-3.04-5.44-6.19-8.05-9.35l10.8-8.91c2.48,3.01,5.06,6,7.66,8.9l-10.41,9.36ZM516.21,459.69l-11.18-8.43c2.35-3.12,4.67-6.33,6.88-9.54l11.53,7.95c-2.33,3.37-4.76,6.74-7.23,10.02ZM57.79,459.69c-2.46-3.27-4.89-6.63-7.22-10l11.52-7.95c2.21,3.21,4.52,6.41,6.87,9.52l-11.17,8.44ZM43.79,439.39c-2.18-3.47-4.31-7.03-6.33-10.58l12.16-6.93c1.93,3.38,3.95,6.77,6.02,10.06l-11.86,7.45ZM530.23,439.35l-11.86-7.45c2.07-3.3,4.1-6.69,6.04-10.09l12.17,6.93c-2.03,3.57-4.17,7.14-6.35,10.61ZM31.59,417.97c-1.87-3.64-3.68-7.36-5.4-11.08l12.72-5.86c1.63,3.53,3.35,7.08,5.13,10.54l-12.45,6.4ZM542.47,417.86l-12.46-6.39c1.79-3.48,3.52-7.04,5.15-10.58l12.72,5.85c-1.71,3.72-3.53,7.46-5.41,11.12ZM21.28,395.59c-1.55-3.79-3.04-7.67-4.43-11.53l13.17-4.74c1.32,3.67,2.74,7.36,4.21,10.96l-12.96,5.3ZM552.8,395.39l-12.96-5.29c1.48-3.62,2.9-7.32,4.21-10.99l13.18,4.72c-1.38,3.86-2.88,7.75-4.43,11.56ZM12.93,372.35c-1.22-3.91-2.37-7.9-3.41-11.87l13.54-3.58c1,3.77,2.09,7.56,3.25,11.29l-13.37,4.16ZM561.16,372.08l-13.37-4.14c1.16-3.74,2.25-7.54,3.24-11.29l13.54,3.56c-1.04,3.95-2.18,7.94-3.4,11.87ZM6.62,348.48c-.87-4-1.67-8.08-2.37-12.12l13.79-2.39c.67,3.84,1.43,7.72,2.26,11.52l-13.68,2.99ZM567.44,348.21l-13.68-2.97c.83-3.8,1.58-7.68,2.25-11.53l13.79,2.38c-.7,4.04-1.49,8.12-2.36,12.12ZM2.39,324.16c-.53-4.06-.97-8.19-1.32-12.27l13.95-1.2c.33,3.88.76,7.81,1.26,11.68l-13.88,1.8ZM571.65,323.88l-13.89-1.79c.5-3.86.92-7.79,1.25-11.68l13.95,1.19c-.35,4.08-.79,8.21-1.31,12.28ZM.27,299.56c-.18-4.09-.27-8.24-.27-12.34h14c0,3.89.09,7.84.26,11.73l-13.99.61ZM573.74,299.28l-13.99-.59c.17-3.88.25-7.84.25-11.75v-.55s14,0,14,0v.51c0,4.14-.09,8.3-.26,12.38ZM14.24,275.46l-13.99-.58c.17-4.09.43-8.24.77-12.32l13.95,1.17c-.33,3.89-.57,7.83-.73,11.72ZM559.73,274.66c-.17-3.89-.43-7.83-.77-11.72l13.95-1.21c.36,4.09.63,8.23.81,12.32l-13.99.62ZM16.21,252.06l-13.89-1.77c.52-4.06,1.13-8.17,1.82-12.21l13.8,2.37c-.66,3.84-1.24,7.75-1.74,11.62ZM557.69,251.27c-.5-3.87-1.1-7.78-1.77-11.61l13.79-2.41c.7,4.03,1.33,8.13,1.86,12.21l-13.88,1.81ZM20.18,228.92l-13.68-2.96c.87-4.01,1.83-8.05,2.87-12.01l13.54,3.55c-.99,3.76-1.91,7.6-2.73,11.42ZM553.65,228.14c-.84-3.81-1.77-7.65-2.77-11.41l13.53-3.59c1.05,3.96,2.03,8,2.91,12l-13.67,3ZM26.13,206.2l-13.38-4.14c1.21-3.92,2.53-7.88,3.91-11.75l13.18,4.71c-1.32,3.68-2.57,7.44-3.72,11.17ZM547.63,205.44c-1.17-3.73-2.43-7.48-3.75-11.13l13.17-4.75c1.39,3.84,2.71,7.78,3.94,11.7l-13.36,4.18ZM34.06,184.04l-12.97-5.28c1.55-3.81,3.2-7.63,4.92-11.36l12.72,5.84c-1.63,3.54-3.2,7.18-4.67,10.8ZM539.66,183.35c-1.47-3.59-3.05-7.2-4.68-10.74l12.71-5.87c1.72,3.72,3.37,7.52,4.92,11.29l-12.95,5.31ZM43.87,162.65l-12.46-6.38c1.87-3.65,3.85-7.31,5.88-10.88l12.17,6.92c-1.93,3.39-3.81,6.88-5.59,10.35ZM529.84,162.08c-1.78-3.46-3.66-6.93-5.59-10.3l12.16-6.94c2.03,3.55,4.01,7.2,5.88,10.83l-12.45,6.41ZM55.48,142.2l-11.86-7.43c2.18-3.48,4.46-6.96,6.79-10.33l11.53,7.94c-2.21,3.21-4.38,6.52-6.46,9.83ZM518.21,141.72c-2.07-3.29-4.25-6.59-6.46-9.79l11.52-7.96c2.33,3.37,4.61,6.83,6.79,10.29l-11.85,7.46ZM68.81,122.84l-11.18-8.42c2.47-3.28,5.04-6.54,7.64-9.71l10.81,8.9c-2.48,3.01-4.92,6.12-7.27,9.23ZM504.88,122.42c-2.36-3.11-4.81-6.21-7.28-9.21l10.79-8.92c2.6,3.15,5.18,6.41,7.65,9.68l-11.16,8.45ZM83.74,104.69l-10.42-9.35c2.73-3.05,5.57-6.08,8.44-9.01l10.01,9.79c-2.73,2.79-5.43,5.68-8.03,8.58ZM489.92,104.32c-2.6-2.89-5.31-5.77-8.04-8.56l9.99-9.8c2.87,2.93,5.72,5.96,8.46,8.99l-10.4,9.37ZM100.16,87.9l-9.58-10.21c2.98-2.8,6.07-5.58,9.18-8.25l9.14,10.61c-2.95,2.55-5.89,5.19-8.73,7.85ZM473.47,87.55c-2.85-2.67-5.8-5.31-8.75-7.84l9.12-10.62c3.1,2.66,6.2,5.44,9.2,8.24l-9.56,10.22ZM117.95,72.57l-8.68-10.99c3.21-2.54,6.52-5.04,9.84-7.44l8.2,11.35c-3.16,2.28-6.31,4.66-9.37,7.08ZM455.64,72.25c-3.06-2.4-6.22-4.78-9.39-7.07l8.18-11.36c3.34,2.4,6.66,4.9,9.87,7.43l-8.66,11ZM136.97,58.83l-7.7-11.69c3.42-2.25,6.93-4.46,10.44-6.56l7.2,12.01c-3.34,2-6.68,4.1-9.93,6.24ZM436.56,58.52c-3.27-2.14-6.62-4.24-9.97-6.24l7.17-12.03c3.52,2.1,7.04,4.3,10.48,6.56l-7.68,11.71ZM157.09,46.77l-6.67-12.31c3.6-1.95,7.28-3.85,10.96-5.64l6.14,12.58c-3.5,1.7-7,3.51-10.42,5.36ZM416.37,46.48c-3.44-1.85-6.96-3.66-10.47-5.36l6.11-12.6c3.69,1.79,7.39,3.68,11.01,5.63l-6.64,12.32ZM178.15,36.5l-5.59-12.84c3.75-1.63,7.59-3.2,11.4-4.67l5.03,13.07c-3.62,1.39-7.27,2.89-10.84,4.44ZM395.2,36.22c-3.59-1.55-7.26-3.04-10.9-4.43l4.99-13.08c3.83,1.46,7.69,3.03,11.47,4.66l-5.55,12.85ZM200.04,28.08l-4.46-13.27c3.89-1.31,7.86-2.54,11.79-3.68l3.88,13.45c-3.74,1.08-7.51,2.25-11.21,3.5ZM373.21,27.83c-3.69-1.23-7.47-2.39-11.22-3.46l3.84-13.46c3.95,1.12,7.92,2.35,11.8,3.64l-4.42,13.28ZM222.6,21.58l-3.29-13.61c3.99-.96,8.04-1.85,12.06-2.64l2.7,13.74c-3.82.75-7.68,1.6-11.47,2.51ZM350.63,21.4c-3.79-.9-7.65-1.74-11.48-2.48l2.66-13.75c4.02.78,8.08,1.65,12.07,2.61l-3.25,13.62ZM245.64,17.06l-2.1-13.84c4.05-.61,8.16-1.15,12.24-1.59l1.51,13.92c-3.88.42-7.8.93-11.65,1.51ZM327.57,16.94c-3.84-.57-7.76-1.07-11.65-1.48l1.46-13.92c4.09.43,8.21.95,12.25,1.56l-2.06,13.85ZM268.99,14.53l-.91-13.97c4.08-.27,8.23-.45,12.33-.54l.32,14c-3.9.09-7.85.26-11.74.51ZM304.22,14.48c-3.89-.24-7.84-.4-11.74-.48l.27-14c4.1.08,8.25.25,12.33.5l-.87,13.97Z"/>
    <g id="ZqTOZs">
      <g>
        <path class="cls-2" d="M337.92,93.28h8.51c1.47,1.11,3.33.77,4.98,1.32,8.3,2.76,14.17,8.23,18.43,15.72,13.59,23.83,27.27,47.62,40.8,71.49,1.33,2.34,2.94,3.53,5.51,3.78,2.97.29,5.69,1.47,8.25,2.9,10.88,6.1,16.06,15.61,16.16,27.91.12,14.28.08,28.57-.02,42.85-.01,2.14.63,3.2,2.58,4.2,8.14,4.21,12.48,11.04,12.55,20.24.12,15.27.13,30.53,0,45.8-.08,9.22-4.56,15.97-12.67,20.17-1.83.95-2.46,1.89-2.45,3.91.09,14.18.08,28.35.03,42.53-.02,5.15-.71,10.21-3.12,14.87-6.1,11.81-15.9,17.39-29.1,17.39-85.16-.02-170.33,0-255.49-.01-.87,0-1.75.01-2.62-.03-9.07-.43-16.53-4.08-22.5-10.97-3.83-4.42-5.52-9.75-7.1-15.17,0-63.7,0-127.4,0-191.1.19-.51.46-1,.55-1.52,2.4-13.39,14.27-24.33,28.19-24.68,8.06-.2,16.12-.26,24.18-.23,2.59.01,4.83-.54,7.09-1.86,39.38-23,78.72-46.06,118.25-68.8,12.75-7.34,24.69-16.31,39.01-20.71ZM280.55,199.93c-42.64,0-85.28.02-127.93-.02-6.68,0-11.83,2.5-15.05,8.5-1.6,2.98-1.67,6.27-1.67,9.55,0,47.88,0,95.75,0,143.63,0,11.56,0,23.12,0,34.68,0,6.73,2.39,12.1,8.69,15.24,3.03,1.51,6.3,1.58,9.57,1.58,65.76,0,131.53,0,197.29,0,18.76,0,37.52-.17,56.27.06,11.62.14,17.78-7.69,17.48-17.32-.42-13.29-.18-26.61-.04-39.91.03-2.76-.52-3.71-3.53-3.67-13.85.18-27.7.2-41.55.05-27.89-.3-48.34-22.85-46.03-50.57,1.83-21.96,21.68-40.58,43.8-40.85,14.72-.18,29.45-.1,44.17,0,2.37.02,3.16-.5,3.14-3.03-.13-13.96-.05-27.92-.08-41.88,0-1.51-.06-3.07-.43-4.53-1.86-7.3-7.81-11.51-16.17-11.51-42.64-.01-85.28,0-127.93,0ZM404.87,336.84c8.83,0,17.67.02,26.5,0,6.03-.02,8.99-2.69,9.04-8.65.12-14.39.11-28.79,0-43.18-.04-6-2.87-8.9-8.86-8.87-18.42.1-36.86-.62-55.27.37-17.48.94-31,20.26-26.16,37.17,4.19,14.66,15.23,23.06,30.53,23.17,8.07.06,16.14,0,24.21.01ZM209.21,184.4c.48.08.87.2,1.27.2,8.5.01,17.01-.01,25.51.03,1.51,0,2.73-.56,3.97-1.28,37.62-21.92,75.23-43.86,112.9-65.69,2.63-1.53,2.19-2.53.54-4.28-5.11-5.42-12.38-6.23-19.67-1.99-40.83,23.76-81.65,47.54-122.47,71.32-.7.41-1.62.58-2.04,1.68ZM269.66,183.93c.09.22.17.44.26.65,9.13,0,18.27.02,27.4-.03.71,0,1.48-.38,2.12-.75,23.07-13.4,46.12-26.83,69.19-40.21,1.45-.84,1.75-1.57.81-3.06-1.68-2.67-3.31-5.39-4.67-8.24-1.18-2.46-2.3-2.62-4.65-1.24-29.31,17.18-58.69,34.23-88.04,51.33-.83.48-1.61,1.03-2.42,1.55ZM329.64,184.07c.73.34.92.5,1.11.5,20.48.02,40.95.01,61.43.06,2.71,0,1.84-1.15,1.06-2.51-4.6-8.02-9.24-16.01-13.73-24.09-1.04-1.87-1.83-2.08-3.69-.99-13.77,8.13-27.61,16.13-41.42,24.18-1.48.86-2.95,1.76-4.76,2.83Z"/>
        <path class="cls-2" d="M379.52,321.69c-8.36,0-15.23-6.81-15.28-15.14-.05-8.22,6.89-15.21,15.19-15.31,8.39-.1,15.43,6.95,15.37,15.39-.05,8.37-6.85,15.06-15.29,15.06Z"/>
      </g>
    </g>
  </g>
</svg>